<mxfile host="app.diagrams.net" modified="2020-05-26T22:08:37.472Z" agent="5.0 (Windows NT 10.0; Win64; x64) AppleWebKit/537.36 (KHTML, like Gecko) Chrome/81.0.4044.138 Safari/537.36" etag="4DQRvoNTdptiKQJ0fEwf" version="13.1.1" type="github">
  <diagram name="Page-1" id="c4acf3e9-155e-7222-9cf6-157b1a14988f">
    <mxGraphModel dx="1422" dy="794" grid="1" gridSize="10" guides="1" tooltips="1" connect="1" arrows="1" fold="1" page="1" pageScale="1" pageWidth="850" pageHeight="1100" background="#ffffff" math="0" shadow="0">
      <root>
        <mxCell id="0" />
        <mxCell id="1" parent="0" />
        <mxCell id="doAZor4C5r2tu2x9XKIU-9" value="体测与测试项目" style="swimlane;fontStyle=0;childLayout=stackLayout;horizontal=1;startSize=26;horizontalStack=0;resizeParent=1;resizeParentMax=0;resizeLast=0;collapsible=1;marginBottom=0;align=center;fontSize=14;" vertex="1" parent="1">
          <mxGeometry x="620" y="203" width="160" height="74" as="geometry" />
        </mxCell>
        <mxCell id="doAZor4C5r2tu2x9XKIU-10" value="体测编号" style="text;strokeColor=none;fillColor=none;spacingLeft=4;spacingRight=4;overflow=hidden;rotatable=0;points=[[0,0.5],[1,0.5]];portConstraint=eastwest;fontSize=12;" vertex="1" parent="doAZor4C5r2tu2x9XKIU-9">
          <mxGeometry y="26" width="160" height="22" as="geometry" />
        </mxCell>
        <mxCell id="doAZor4C5r2tu2x9XKIU-11" value="测试项目编号" style="text;strokeColor=none;fillColor=none;spacingLeft=4;spacingRight=4;overflow=hidden;rotatable=0;points=[[0,0.5],[1,0.5]];portConstraint=eastwest;fontSize=12;" vertex="1" parent="doAZor4C5r2tu2x9XKIU-9">
          <mxGeometry y="48" width="160" height="26" as="geometry" />
        </mxCell>
        <mxCell id="doAZor4C5r2tu2x9XKIU-13" value="测试项目" style="swimlane;fontStyle=0;childLayout=stackLayout;horizontal=1;startSize=26;horizontalStack=0;resizeParent=1;resizeParentMax=0;resizeLast=0;collapsible=1;marginBottom=0;align=center;fontSize=14;" vertex="1" parent="1">
          <mxGeometry x="620" y="320" width="160" height="74" as="geometry" />
        </mxCell>
        <mxCell id="doAZor4C5r2tu2x9XKIU-14" value="测试项目编号" style="text;strokeColor=none;fillColor=none;spacingLeft=4;spacingRight=4;overflow=hidden;rotatable=0;points=[[0,0.5],[1,0.5]];portConstraint=eastwest;fontSize=12;" vertex="1" parent="doAZor4C5r2tu2x9XKIU-13">
          <mxGeometry y="26" width="160" height="22" as="geometry" />
        </mxCell>
        <mxCell id="doAZor4C5r2tu2x9XKIU-15" value="测试项目名称" style="text;strokeColor=none;fillColor=none;spacingLeft=4;spacingRight=4;overflow=hidden;rotatable=0;points=[[0,0.5],[1,0.5]];portConstraint=eastwest;fontSize=12;" vertex="1" parent="doAZor4C5r2tu2x9XKIU-13">
          <mxGeometry y="48" width="160" height="26" as="geometry" />
        </mxCell>
        <mxCell id="doAZor4C5r2tu2x9XKIU-5" value="考点" style="swimlane;fontStyle=0;childLayout=stackLayout;horizontal=1;startSize=26;horizontalStack=0;resizeParent=1;resizeParentMax=0;resizeLast=0;collapsible=1;marginBottom=0;align=center;fontSize=14;" vertex="1" parent="1">
          <mxGeometry x="160" y="203" width="160" height="104" as="geometry" />
        </mxCell>
        <mxCell id="doAZor4C5r2tu2x9XKIU-6" value="体测编号" style="text;strokeColor=none;fillColor=none;spacingLeft=4;spacingRight=4;overflow=hidden;rotatable=0;points=[[0,0.5],[1,0.5]];portConstraint=eastwest;fontSize=12;" vertex="1" parent="doAZor4C5r2tu2x9XKIU-5">
          <mxGeometry y="26" width="160" height="26" as="geometry" />
        </mxCell>
        <mxCell id="doAZor4C5r2tu2x9XKIU-7" value="考点编号" style="text;strokeColor=none;fillColor=none;spacingLeft=4;spacingRight=4;overflow=hidden;rotatable=0;points=[[0,0.5],[1,0.5]];portConstraint=eastwest;fontSize=12;" vertex="1" parent="doAZor4C5r2tu2x9XKIU-5">
          <mxGeometry y="52" width="160" height="26" as="geometry" />
        </mxCell>
        <mxCell id="doAZor4C5r2tu2x9XKIU-8" value="考点名称" style="text;strokeColor=none;fillColor=none;spacingLeft=4;spacingRight=4;overflow=hidden;rotatable=0;points=[[0,0.5],[1,0.5]];portConstraint=eastwest;fontSize=12;" vertex="1" parent="doAZor4C5r2tu2x9XKIU-5">
          <mxGeometry y="78" width="160" height="26" as="geometry" />
        </mxCell>
        <mxCell id="doAZor4C5r2tu2x9XKIU-24" value="考点与学校" style="swimlane;fontStyle=0;childLayout=stackLayout;horizontal=1;startSize=26;horizontalStack=0;resizeParent=1;resizeParentMax=0;resizeLast=0;collapsible=1;marginBottom=0;align=center;fontSize=14;" vertex="1" parent="1">
          <mxGeometry x="280" y="360" width="160" height="170" as="geometry" />
        </mxCell>
        <mxCell id="doAZor4C5r2tu2x9XKIU-25" value="体测编号" style="text;strokeColor=none;fillColor=none;spacingLeft=4;spacingRight=4;overflow=hidden;rotatable=0;points=[[0,0.5],[1,0.5]];portConstraint=eastwest;fontSize=12;" vertex="1" parent="doAZor4C5r2tu2x9XKIU-24">
          <mxGeometry y="26" width="160" height="26" as="geometry" />
        </mxCell>
        <mxCell id="doAZor4C5r2tu2x9XKIU-26" value="考点编号" style="text;strokeColor=none;fillColor=none;spacingLeft=4;spacingRight=4;overflow=hidden;rotatable=0;points=[[0,0.5],[1,0.5]];portConstraint=eastwest;fontSize=12;" vertex="1" parent="doAZor4C5r2tu2x9XKIU-24">
          <mxGeometry y="52" width="160" height="26" as="geometry" />
        </mxCell>
        <mxCell id="doAZor4C5r2tu2x9XKIU-27" value="学校编号" style="text;strokeColor=none;fillColor=none;spacingLeft=4;spacingRight=4;overflow=hidden;rotatable=0;points=[[0,0.5],[1,0.5]];portConstraint=eastwest;fontSize=12;" vertex="1" parent="doAZor4C5r2tu2x9XKIU-24">
          <mxGeometry y="78" width="160" height="26" as="geometry" />
        </mxCell>
        <mxCell id="doAZor4C5r2tu2x9XKIU-28" value="年级编号：可多个，全部为*" style="text;strokeColor=none;fillColor=none;spacingLeft=4;spacingRight=4;overflow=hidden;rotatable=0;points=[[0,0.5],[1,0.5]];portConstraint=eastwest;fontSize=12;" vertex="1" parent="doAZor4C5r2tu2x9XKIU-24">
          <mxGeometry y="104" width="160" height="26" as="geometry" />
        </mxCell>
        <mxCell id="doAZor4C5r2tu2x9XKIU-29" value="班级编号：可多个，全部为*&#xa;。班级和年级编号2选1.&#xa;" style="text;strokeColor=none;fillColor=none;spacingLeft=4;spacingRight=4;overflow=hidden;rotatable=0;points=[[0,0.5],[1,0.5]];portConstraint=eastwest;fontSize=12;" vertex="1" parent="doAZor4C5r2tu2x9XKIU-24">
          <mxGeometry y="130" width="160" height="40" as="geometry" />
        </mxCell>
        <mxCell id="doAZor4C5r2tu2x9XKIU-30" value="" style="edgeStyle=orthogonalEdgeStyle;fontSize=12;html=1;endArrow=ERoneToMany;exitX=0;exitY=0.5;exitDx=0;exitDy=0;" edge="1" parent="1" source="doAZor4C5r2tu2x9XKIU-2">
          <mxGeometry width="100" height="100" relative="1" as="geometry">
            <mxPoint x="40" y="110" as="sourcePoint" />
            <mxPoint x="320" y="242" as="targetPoint" />
            <Array as="points">
              <mxPoint x="380" y="109" />
              <mxPoint x="380" y="242" />
            </Array>
          </mxGeometry>
        </mxCell>
        <mxCell id="doAZor4C5r2tu2x9XKIU-31" value="" style="edgeStyle=orthogonalEdgeStyle;fontSize=12;html=1;endArrow=ERoneToMany;exitX=1;exitY=0.5;exitDx=0;exitDy=0;" edge="1" parent="1" source="doAZor4C5r2tu2x9XKIU-7">
          <mxGeometry width="100" height="100" relative="1" as="geometry">
            <mxPoint x="465" y="250" as="sourcePoint" />
            <mxPoint x="440" y="420" as="targetPoint" />
            <Array as="points">
              <mxPoint x="490" y="268" />
              <mxPoint x="490" y="420" />
              <mxPoint x="440" y="420" />
            </Array>
          </mxGeometry>
        </mxCell>
        <mxCell id="doAZor4C5r2tu2x9XKIU-32" value="" style="edgeStyle=orthogonalEdgeStyle;fontSize=12;html=1;endArrow=ERoneToMany;" edge="1" parent="1" source="doAZor4C5r2tu2x9XKIU-7" target="doAZor4C5r2tu2x9XKIU-21">
          <mxGeometry width="100" height="100" relative="1" as="geometry">
            <mxPoint x="70.00000000000003" y="270" as="sourcePoint" />
            <mxPoint x="109" y="360" as="targetPoint" />
            <Array as="points">
              <mxPoint x="40" y="268" />
              <mxPoint x="40" y="430" />
            </Array>
          </mxGeometry>
        </mxCell>
        <mxCell id="doAZor4C5r2tu2x9XKIU-33" value="" style="edgeStyle=orthogonalEdgeStyle;fontSize=12;html=1;endArrow=ERoneToMany;entryX=0.5;entryY=0;entryDx=0;entryDy=0;exitX=1;exitY=0.5;exitDx=0;exitDy=0;" edge="1" parent="1" source="doAZor4C5r2tu2x9XKIU-2" target="doAZor4C5r2tu2x9XKIU-9">
          <mxGeometry width="100" height="100" relative="1" as="geometry">
            <mxPoint x="570" y="110" as="sourcePoint" />
            <mxPoint x="609.04" y="212.01" as="targetPoint" />
          </mxGeometry>
        </mxCell>
        <mxCell id="doAZor4C5r2tu2x9XKIU-34" value="" style="edgeStyle=orthogonalEdgeStyle;fontSize=12;html=1;endArrow=ERmandOne;startArrow=ERmandOne;entryX=0;entryY=0.5;entryDx=0;entryDy=0;exitX=0;exitY=0.5;exitDx=0;exitDy=0;" edge="1" parent="1" source="doAZor4C5r2tu2x9XKIU-14" target="doAZor4C5r2tu2x9XKIU-11">
          <mxGeometry width="100" height="100" relative="1" as="geometry">
            <mxPoint x="620" y="373" as="sourcePoint" />
            <mxPoint x="590" y="440" as="targetPoint" />
            <Array as="points">
              <mxPoint x="570" y="357" />
              <mxPoint x="570" y="264" />
            </Array>
          </mxGeometry>
        </mxCell>
        <mxCell id="doAZor4C5r2tu2x9XKIU-35" value="" style="edgeStyle=orthogonalEdgeStyle;fontSize=12;html=1;endArrow=ERoneToMany;exitX=1;exitY=0.5;exitDx=0;exitDy=0;entryX=1;entryY=0.5;entryDx=0;entryDy=0;" edge="1" parent="1" source="doAZor4C5r2tu2x9XKIU-38" target="doAZor4C5r2tu2x9XKIU-41">
          <mxGeometry width="100" height="100" relative="1" as="geometry">
            <mxPoint x="439.99999999999994" y="434.496" as="sourcePoint" />
            <mxPoint x="632.92" y="519.5" as="targetPoint" />
            <Array as="points">
              <mxPoint x="300" y="677" />
              <mxPoint x="300" y="827" />
            </Array>
          </mxGeometry>
        </mxCell>
        <mxCell id="doAZor4C5r2tu2x9XKIU-19" value="考点与测试员" style="swimlane;fontStyle=0;childLayout=stackLayout;horizontal=1;startSize=26;horizontalStack=0;resizeParent=1;resizeParentMax=0;resizeLast=0;collapsible=1;marginBottom=0;align=center;fontSize=14;" vertex="1" parent="1">
          <mxGeometry x="80" y="360" width="160" height="104" as="geometry" />
        </mxCell>
        <mxCell id="doAZor4C5r2tu2x9XKIU-20" value="体测编号" style="text;strokeColor=none;fillColor=none;spacingLeft=4;spacingRight=4;overflow=hidden;rotatable=0;points=[[0,0.5],[1,0.5]];portConstraint=eastwest;fontSize=12;" vertex="1" parent="doAZor4C5r2tu2x9XKIU-19">
          <mxGeometry y="26" width="160" height="26" as="geometry" />
        </mxCell>
        <mxCell id="doAZor4C5r2tu2x9XKIU-21" value="考点编号" style="text;strokeColor=none;fillColor=none;spacingLeft=4;spacingRight=4;overflow=hidden;rotatable=0;points=[[0,0.5],[1,0.5]];portConstraint=eastwest;fontSize=12;" vertex="1" parent="doAZor4C5r2tu2x9XKIU-19">
          <mxGeometry y="52" width="160" height="26" as="geometry" />
        </mxCell>
        <mxCell id="doAZor4C5r2tu2x9XKIU-22" value="测试员编号" style="text;strokeColor=none;fillColor=none;spacingLeft=4;spacingRight=4;overflow=hidden;rotatable=0;points=[[0,0.5],[1,0.5]];portConstraint=eastwest;fontSize=12;" vertex="1" parent="doAZor4C5r2tu2x9XKIU-19">
          <mxGeometry y="78" width="160" height="26" as="geometry" />
        </mxCell>
        <mxCell id="doAZor4C5r2tu2x9XKIU-1" value="体测考试" style="swimlane;fontStyle=0;childLayout=stackLayout;horizontal=1;startSize=26;horizontalStack=0;resizeParent=1;resizeParentMax=0;resizeLast=0;collapsible=1;marginBottom=0;align=center;fontSize=14;" vertex="1" parent="1">
          <mxGeometry x="410" y="70" width="160" height="78" as="geometry" />
        </mxCell>
        <mxCell id="doAZor4C5r2tu2x9XKIU-2" value="体测编号" style="text;strokeColor=none;fillColor=none;spacingLeft=4;spacingRight=4;overflow=hidden;rotatable=0;points=[[0,0.5],[1,0.5]];portConstraint=eastwest;fontSize=12;" vertex="1" parent="doAZor4C5r2tu2x9XKIU-1">
          <mxGeometry y="26" width="160" height="26" as="geometry" />
        </mxCell>
        <mxCell id="doAZor4C5r2tu2x9XKIU-3" value="体测名称" style="text;strokeColor=none;fillColor=none;spacingLeft=4;spacingRight=4;overflow=hidden;rotatable=0;points=[[0,0.5],[1,0.5]];portConstraint=eastwest;fontSize=12;" vertex="1" parent="doAZor4C5r2tu2x9XKIU-1">
          <mxGeometry y="52" width="160" height="26" as="geometry" />
        </mxCell>
        <mxCell id="doAZor4C5r2tu2x9XKIU-37" value="测试项目" style="swimlane;fontStyle=0;childLayout=stackLayout;horizontal=1;startSize=26;horizontalStack=0;resizeParent=1;resizeParentMax=0;resizeLast=0;collapsible=1;marginBottom=0;align=center;fontSize=14;" vertex="1" parent="1">
          <mxGeometry x="50" y="640" width="160" height="74" as="geometry" />
        </mxCell>
        <mxCell id="doAZor4C5r2tu2x9XKIU-38" value="测试项目编号" style="text;strokeColor=none;fillColor=none;spacingLeft=4;spacingRight=4;overflow=hidden;rotatable=0;points=[[0,0.5],[1,0.5]];portConstraint=eastwest;fontSize=12;" vertex="1" parent="doAZor4C5r2tu2x9XKIU-37">
          <mxGeometry y="26" width="160" height="22" as="geometry" />
        </mxCell>
        <mxCell id="doAZor4C5r2tu2x9XKIU-39" value="测试项目名称" style="text;strokeColor=none;fillColor=none;spacingLeft=4;spacingRight=4;overflow=hidden;rotatable=0;points=[[0,0.5],[1,0.5]];portConstraint=eastwest;fontSize=12;" vertex="1" parent="doAZor4C5r2tu2x9XKIU-37">
          <mxGeometry y="48" width="160" height="26" as="geometry" />
        </mxCell>
        <mxCell id="doAZor4C5r2tu2x9XKIU-40" value="评分表" style="swimlane;fontStyle=0;childLayout=stackLayout;horizontal=1;startSize=26;horizontalStack=0;resizeParent=1;resizeParentMax=0;resizeLast=0;collapsible=1;marginBottom=0;align=center;fontSize=14;" vertex="1" parent="1">
          <mxGeometry x="50" y="790" width="160" height="126" as="geometry" />
        </mxCell>
        <mxCell id="doAZor4C5r2tu2x9XKIU-41" value="测试项目编号" style="text;strokeColor=none;fillColor=none;spacingLeft=4;spacingRight=4;overflow=hidden;rotatable=0;points=[[0,0.5],[1,0.5]];portConstraint=eastwest;fontSize=12;" vertex="1" parent="doAZor4C5r2tu2x9XKIU-40">
          <mxGeometry y="26" width="160" height="22" as="geometry" />
        </mxCell>
        <mxCell id="doAZor4C5r2tu2x9XKIU-42" value="性别" style="text;strokeColor=none;fillColor=none;spacingLeft=4;spacingRight=4;overflow=hidden;rotatable=0;points=[[0,0.5],[1,0.5]];portConstraint=eastwest;fontSize=12;" vertex="1" parent="doAZor4C5r2tu2x9XKIU-40">
          <mxGeometry y="48" width="160" height="26" as="geometry" />
        </mxCell>
        <mxCell id="doAZor4C5r2tu2x9XKIU-43" value="分值" style="text;strokeColor=none;fillColor=none;spacingLeft=4;spacingRight=4;overflow=hidden;rotatable=0;points=[[0,0.5],[1,0.5]];portConstraint=eastwest;fontSize=12;" vertex="1" parent="doAZor4C5r2tu2x9XKIU-40">
          <mxGeometry y="74" width="160" height="26" as="geometry" />
        </mxCell>
        <mxCell id="doAZor4C5r2tu2x9XKIU-44" value="成绩" style="text;strokeColor=none;fillColor=none;spacingLeft=4;spacingRight=4;overflow=hidden;rotatable=0;points=[[0,0.5],[1,0.5]];portConstraint=eastwest;fontSize=12;" vertex="1" parent="doAZor4C5r2tu2x9XKIU-40">
          <mxGeometry y="100" width="160" height="26" as="geometry" />
        </mxCell>
        <mxCell id="doAZor4C5r2tu2x9XKIU-54" value="" style="edgeStyle=orthogonalEdgeStyle;fontSize=12;html=1;endArrow=ERoneToMany;exitX=1;exitY=0.5;exitDx=0;exitDy=0;entryX=0;entryY=0.5;entryDx=0;entryDy=0;" edge="1" parent="1" source="doAZor4C5r2tu2x9XKIU-46" target="doAZor4C5r2tu2x9XKIU-49">
          <mxGeometry width="100" height="100" relative="1" as="geometry">
            <mxPoint x="410" y="1100" as="sourcePoint" />
            <mxPoint x="410" y="1250" as="targetPoint" />
            <Array as="points" />
          </mxGeometry>
        </mxCell>
        <mxCell id="doAZor4C5r2tu2x9XKIU-45" value="学校" style="swimlane;fontStyle=0;childLayout=stackLayout;horizontal=1;startSize=26;horizontalStack=0;resizeParent=1;resizeParentMax=0;resizeLast=0;collapsible=1;marginBottom=0;align=center;fontSize=14;" vertex="1" parent="1">
          <mxGeometry x="80" y="1170" width="160" height="74" as="geometry" />
        </mxCell>
        <mxCell id="doAZor4C5r2tu2x9XKIU-46" value="学校编号" style="text;strokeColor=none;fillColor=none;spacingLeft=4;spacingRight=4;overflow=hidden;rotatable=0;points=[[0,0.5],[1,0.5]];portConstraint=eastwest;fontSize=12;" vertex="1" parent="doAZor4C5r2tu2x9XKIU-45">
          <mxGeometry y="26" width="160" height="22" as="geometry" />
        </mxCell>
        <mxCell id="doAZor4C5r2tu2x9XKIU-47" value="学校名称" style="text;strokeColor=none;fillColor=none;spacingLeft=4;spacingRight=4;overflow=hidden;rotatable=0;points=[[0,0.5],[1,0.5]];portConstraint=eastwest;fontSize=12;" vertex="1" parent="doAZor4C5r2tu2x9XKIU-45">
          <mxGeometry y="48" width="160" height="26" as="geometry" />
        </mxCell>
        <mxCell id="doAZor4C5r2tu2x9XKIU-55" value="年级" style="swimlane;fontStyle=0;childLayout=stackLayout;horizontal=1;startSize=26;horizontalStack=0;resizeParent=1;resizeParentMax=0;resizeLast=0;collapsible=1;marginBottom=0;align=center;fontSize=14;" vertex="1" parent="1">
          <mxGeometry x="670" y="1170" width="160" height="74" as="geometry" />
        </mxCell>
        <mxCell id="doAZor4C5r2tu2x9XKIU-56" value="年级编号" style="text;strokeColor=none;fillColor=none;spacingLeft=4;spacingRight=4;overflow=hidden;rotatable=0;points=[[0,0.5],[1,0.5]];portConstraint=eastwest;fontSize=12;" vertex="1" parent="doAZor4C5r2tu2x9XKIU-55">
          <mxGeometry y="26" width="160" height="22" as="geometry" />
        </mxCell>
        <mxCell id="doAZor4C5r2tu2x9XKIU-57" value="年级名称" style="text;strokeColor=none;fillColor=none;spacingLeft=4;spacingRight=4;overflow=hidden;rotatable=0;points=[[0,0.5],[1,0.5]];portConstraint=eastwest;fontSize=12;" vertex="1" parent="doAZor4C5r2tu2x9XKIU-55">
          <mxGeometry y="48" width="160" height="26" as="geometry" />
        </mxCell>
        <mxCell id="doAZor4C5r2tu2x9XKIU-48" value="学校与年级" style="swimlane;fontStyle=0;childLayout=stackLayout;horizontal=1;startSize=26;horizontalStack=0;resizeParent=1;resizeParentMax=0;resizeLast=0;collapsible=1;marginBottom=0;align=center;fontSize=14;" vertex="1" parent="1">
          <mxGeometry x="390" y="1170" width="160" height="74" as="geometry" />
        </mxCell>
        <mxCell id="doAZor4C5r2tu2x9XKIU-49" value="学校编号" style="text;strokeColor=none;fillColor=none;spacingLeft=4;spacingRight=4;overflow=hidden;rotatable=0;points=[[0,0.5],[1,0.5]];portConstraint=eastwest;fontSize=12;" vertex="1" parent="doAZor4C5r2tu2x9XKIU-48">
          <mxGeometry y="26" width="160" height="22" as="geometry" />
        </mxCell>
        <mxCell id="doAZor4C5r2tu2x9XKIU-50" value="年级编号" style="text;strokeColor=none;fillColor=none;spacingLeft=4;spacingRight=4;overflow=hidden;rotatable=0;points=[[0,0.5],[1,0.5]];portConstraint=eastwest;fontSize=12;" vertex="1" parent="doAZor4C5r2tu2x9XKIU-48">
          <mxGeometry y="48" width="160" height="26" as="geometry" />
        </mxCell>
        <mxCell id="doAZor4C5r2tu2x9XKIU-58" value="" style="edgeStyle=orthogonalEdgeStyle;fontSize=12;html=1;endArrow=ERoneToMany;exitX=0;exitY=0.5;exitDx=0;exitDy=0;entryX=1;entryY=0.5;entryDx=0;entryDy=0;" edge="1" parent="1" source="doAZor4C5r2tu2x9XKIU-56" target="doAZor4C5r2tu2x9XKIU-50">
          <mxGeometry width="100" height="100" relative="1" as="geometry">
            <mxPoint x="260" y="1300" as="sourcePoint" />
            <mxPoint x="410" y="1300" as="targetPoint" />
            <Array as="points" />
          </mxGeometry>
        </mxCell>
      </root>
    </mxGraphModel>
  </diagram>
</mxfile>
